<?xml version="1.0" encoding="utf-8"?><svg xmlns="http://www.w3.org/2000/svg" xmlns:xlink="http://www.w3.org/1999/xlink"><symbol viewBox="0 0 40 40" id="app-icon-checkmark" xmlns="http://www.w3.org/2000/svg"><path d="M14.45 26.388L7.14 18.69 4 21.995 14.45 33 36 10.306 32.86 7 14.45 26.388z"/></symbol><symbol viewBox="0 0 40 40" id="app-icon-settings" xmlns="http://www.w3.org/2000/svg"><path d="M21.667 8.333h15v3.334h-15V8.333zM3.333 11.667H15V15h3.333V5H15v3.333H3.333v3.334zM15 28.333h21.667v3.334H15v-3.334zm16.667-10h5v3.334h-5v-3.334zM28.333 25v-9.98H25v3.313H3.333v3.334H25V25h3.333zM11.667 35V25H8.333v3.333h-5v3.334h5V35h3.334z"/></symbol><symbol viewBox="0 0 40 40" id="app-icon-sidebar" xmlns="http://www.w3.org/2000/svg"><path d="M33.333 5H6.667a3.337 3.337 0 00-3.334 3.333v23.334A3.337 3.337 0 006.667 35h26.666a3.337 3.337 0 003.334-3.333V8.333A3.337 3.337 0 0033.333 5zM6.667 31.667v-20h10v20h-10zm13.333 0v-20h13.333V8.333l.004 23.334H20z"/><path d="M10 16.667h3.333V20H10v-3.333zm0 6.666h3.333v3.334H10v-3.334z"/></symbol><symbol viewBox="0 0 40 40" id="app-icon-target" xmlns="http://www.w3.org/2000/svg"><path d="M20 25a5 5 0 100-10 5 5 0 000 10z"/><path d="M21.667 6.782V3.333h-3.334v3.449c-6.018.755-10.796 5.533-11.551 11.551H3.333v3.334h3.449c.755 6.018 5.531 10.796 11.551 11.551v3.449h3.334v-3.449c6.018-.755 10.796-5.531 11.551-11.551h3.449v-3.334h-3.449c-.755-6.018-5.533-10.796-11.551-11.551zM20 30c-5.515 0-10-4.485-10-10s4.485-10 10-10 10 4.485 10 10-4.485 10-10 10z"/></symbol></svg>