<?xml version="1.0" encoding="utf-8"?><svg xmlns="http://www.w3.org/2000/svg" xmlns:xlink="http://www.w3.org/1999/xlink"><symbol viewBox="0 0 40 40" id="app-icon-bin" xmlns="http://www.w3.org/2000/svg"><path d="M11.5 12.5H10V32c0 1.656 1.344 3 3 3h15c1.656 0 3-1.344 3-3V12.5H11.5zM27.427 8L25 5h-9l-2.427 3H7v3h27V8h-6.573z"/></symbol><symbol viewBox="0 0 40 40" id="app-icon-checkmark" xmlns="http://www.w3.org/2000/svg"><path d="M14.45 26.388L7.14 18.69 4 21.995 14.45 33 36 10.306 32.86 7 14.45 26.388z"/></symbol><symbol viewBox="0 0 40 40" id="app-icon-chevron-down" xmlns="http://www.w3.org/2000/svg"><path d="M30.907 11.5L20 21.749 9.093 11.5 5.5 14.876 20 28.5l14.5-13.624-3.593-3.376z"/></symbol><symbol viewBox="0 0 40 40" id="app-icon-chevron-left" xmlns="http://www.w3.org/2000/svg"><path d="M28.5 30.907L18.251 20 28.5 9.093 25.124 5.5 11.5 20l13.624 14.5 3.376-3.593z"/></symbol><symbol viewBox="0 0 40 40" id="app-icon-chevron-right" xmlns="http://www.w3.org/2000/svg"><path d="M11.5 9.093L21.749 20 11.5 30.907l3.376 3.593L28.5 20 14.876 5.5 11.5 9.093z"/></symbol><symbol viewBox="0 0 40 40" id="app-icon-chevron-up" xmlns="http://www.w3.org/2000/svg"><path d="M9.093 28.5L20 18.251 30.907 28.5l3.593-3.376L20 11.5 5.5 25.124 9.093 28.5z"/></symbol><symbol viewBox="0 0 40 40" id="app-icon-edit" xmlns="http://www.w3.org/2000/svg"><path fill-rule="evenodd" clip-rule="evenodd" d="M23.663 10.562l5.56 5.587L15.15 30.292l-5.557-5.587 14.071-14.143zm9.78-1.348l-2.48-2.492a2.452 2.452 0 00-3.476 0L25.112 9.11l5.56 5.588 2.77-2.785a1.912 1.912 0 000-2.698zM6.683 32.559a.634.634 0 00.765.756l6.196-1.51-5.558-5.587-1.404 6.34z"/></symbol><symbol viewBox="0 0 40 40" id="app-icon-globe" xmlns="http://www.w3.org/2000/svg"><path d="M20 5C11.729 5 5 11.729 5 20s6.729 15 15 15 15-6.729 15-15S28.271 5 20 5zm11.896 13.5H27.75a22 22 0 00-2.688-9.364c3.657 1.711 6.311 5.206 6.834 9.364zM20.795 8.04c1.552 2.046 3.64 5.67 3.94 10.46h-9.19c.209-3.894 1.491-7.542 3.676-10.461C19.48 8.024 19.738 8 20 8c.268 0 .531.024.795.04zm-5.763 1.05c-1.476 2.837-2.328 6.053-2.487 9.41H8.104c.528-4.194 3.222-7.714 6.928-9.41zM8.104 21.5h4.46c.204 3.569.998 6.717 2.335 9.345-3.638-1.719-6.275-5.202-6.795-9.345zm11.071 10.46c-2.102-2.547-3.342-6.116-3.614-10.46h9.17c-.312 4.16-1.676 7.794-3.905 10.458-.273.018-.546.042-.826.042-.279 0-.55-.024-.825-.04zm6.017-1.159c1.432-2.69 2.306-5.851 2.536-9.301h4.167c-.514 4.108-3.114 7.57-6.703 9.302z"/></symbol><symbol viewBox="0 0 40 40" id="app-icon-minus" xmlns="http://www.w3.org/2000/svg"><path d="M7.333 18.2h25.334v3.6H7.333v-3.6z"/></symbol><symbol viewBox="0 0 40 40" id="app-icon-pane" xmlns="http://www.w3.org/2000/svg"><path d="M24.177 6H9.305A3.306 3.306 0 006 9.305v14.872a3.306 3.306 0 003.305 3.305h14.872a3.306 3.306 0 003.305-3.305V9.305A3.306 3.306 0 0024.177 6z"/><path d="M35 31.695V16.823a3.306 3.306 0 00-3.305-3.305h-1.652v13.22a3.306 3.306 0 01-3.305 3.305h-13.22v1.652A3.306 3.306 0 0016.823 35h14.872A3.306 3.306 0 0035 31.695z"/></symbol><symbol viewBox="0 0 40 40" id="app-icon-plus" xmlns="http://www.w3.org/2000/svg"><path d="M33 18.143H21.857V7h-3.714v11.143H7v3.714h11.143V33h3.714V21.857H33v-3.714z"/></symbol><symbol viewBox="0 0 40 40" id="app-icon-refresh" xmlns="http://www.w3.org/2000/svg"><path d="M16.1 17.571h-5.653c0-.006 0-.011.002-.017a9.478 9.478 0 01.567-1.807 9.719 9.719 0 012.089-3.067 9.833 9.833 0 013.1-2.065 9.629 9.629 0 011.83-.562c1.282-.26 2.645-.26 3.934 0a9.785 9.785 0 014.924 2.625l2.761-2.723a13.765 13.765 0 00-4.337-2.895 13.606 13.606 0 00-2.564-.787 13.953 13.953 0 00-5.497 0 13.64 13.64 0 00-2.566.79 13.696 13.696 0 00-4.343 2.891c-.62.61-1.18 1.284-1.663 1.995a13.41 13.41 0 00-1.26 2.295 13.156 13.156 0 00-.795 2.536c-.055.26-.084.527-.123.791H.5l7.8 7.715 7.8-7.715zm7.8 3.857h5.653c-.002.006 0 .012-.002.016a9.259 9.259 0 01-.57 1.809 9.557 9.557 0 01-2.09 3.066 9.824 9.824 0 01-3.096 2.066 9.718 9.718 0 01-1.83.561c-1.28.26-2.646.26-3.933 0a9.742 9.742 0 01-3.484-1.45c-.515-.343-1-.74-1.443-1.177l-2.758 2.727A13.683 13.683 0 0020 33a13.9 13.9 0 002.746-.274 13.516 13.516 0 002.568-.789c.809-.34 1.589-.758 2.316-1.244a13.595 13.595 0 004.944-5.936c.347-.81.614-1.664.795-2.538.053-.26.084-.526.123-.79H39.5l-7.8-7.715-7.8 7.714z"/></symbol><symbol viewBox="0 0 40 40" id="app-icon-remove" xmlns="http://www.w3.org/2000/svg"><path d="M31.5 28.874L22.626 20l8.874-8.874L28.874 8.5 20 17.374 11.126 8.5 8.5 11.126 17.374 20 8.5 28.874l2.626 2.626L20 22.626l8.874 8.874 2.626-2.626z"/></symbol><symbol viewBox="0 0 40 40" id="app-icon-settings" xmlns="http://www.w3.org/2000/svg"><path d="M21.667 8.333h15v3.334h-15V8.333zM3.333 11.667H15V15h3.333V5H15v3.333H3.333v3.334zM15 28.333h21.667v3.334H15v-3.334zm16.667-10h5v3.334h-5v-3.334zM28.333 25v-9.98H25v3.313H3.333v3.334H25V25h3.333zM11.667 35V25H8.333v3.333h-5v3.334h5V35h3.334z"/></symbol><symbol viewBox="0 0 40 40" id="app-icon-sidebar" xmlns="http://www.w3.org/2000/svg"><path d="M33.333 5H6.667a3.337 3.337 0 00-3.334 3.333v23.334A3.337 3.337 0 006.667 35h26.666a3.337 3.337 0 003.334-3.333V8.333A3.337 3.337 0 0033.333 5zM6.667 31.667v-20h10v20h-10zm13.333 0v-20h13.333V8.333l.004 23.334H20z"/><path d="M10 16.667h3.333V20H10v-3.333zm0 6.666h3.333v3.334H10v-3.334z"/></symbol><symbol viewBox="0 0 40 40" id="app-icon-target" xmlns="http://www.w3.org/2000/svg"><path d="M20 25a5 5 0 100-10 5 5 0 000 10z"/><path d="M21.667 6.782V3.333h-3.334v3.449c-6.018.755-10.796 5.533-11.551 11.551H3.333v3.334h3.449c.755 6.018 5.531 10.796 11.551 11.551v3.449h3.334v-3.449c6.018-.755 10.796-5.531 11.551-11.551h3.449v-3.334h-3.449c-.755-6.018-5.533-10.796-11.551-11.551zM20 30c-5.515 0-10-4.485-10-10s4.485-10 10-10 10 4.485 10 10-4.485 10-10 10z"/></symbol></svg>